<svg id="slider-arrow-icon" xmlns="http://www.w3.org/2000/svg" width="43" height="43" viewBox="0 0 43 43">
  <circle id="Ellipse_66" data-name="Ellipse 66" cx="21.5" cy="21.5" r="21.5" fill="#fff"/>
  <g id="Group_1265" data-name="Group 1265" transform="translate(27 27) rotate(180)">
    <path id="Path_3019" data-name="Path 3019" d="M5.777,10.822a.573.573,0,0,1-.831,0L.174,5.927a.611.611,0,0,1,0-.853L4.947.178a.573.573,0,0,1,.831,0l.546.559a.615.615,0,0,1-.01.864L3.355,4.492H10.41a.6.6,0,0,1,.59.6V5.9a.6.6,0,0,1-.59.6H3.355L6.313,9.4a.611.611,0,0,1,.01.864Z" fill="#0a0a0a"/>
  </g>
</svg>
