<svg xmlns="http://www.w3.org/2000/svg" width="30.817" height="20.816" viewBox="0 0 30.817 20.816">
  <g id="slilder-arrow-right" transform="translate(30.817 20.816) rotate(180)">
    <path id="Path_3019" fill="#fff" data-name="Path 3019" d="M-857.9-2273.135a1.085,1.085,0,0,1-1.572,0l-9.033-9.262a1.157,1.157,0,0,1,0-1.615l9.033-9.265a1.085,1.085,0,0,1,1.572,0l1.033,1.058a1.164,1.164,0,0,1-.02,1.635l-5.6,5.471h23.352a1.127,1.127,0,0,1,1.116,1.145v1.525a1.128,1.128,0,0,1-1.116,1.143h-23.352l5.6,5.473a1.155,1.155,0,0,1,.02,1.635Z" transform="translate(868.837 2293.615)"/>
  </g>
</svg>
